<?xml version="1.0" encoding="utf-8"?>
<!-- Generator: Adobe Illustrator 23.0.3, SVG Export Plug-In . SVG Version: 6.00 Build 0)  -->
<svg version="1.1" xmlns="http://www.w3.org/2000/svg" xmlns:xlink="http://www.w3.org/1999/xlink" x="0px" y="0px"
	 viewBox="0 0 60 60" style="enable-background:new 0 0 60 60;" xml:space="preserve">
<style type="text/css">
	.st0{fill:#9E9E9E;}
	.st1{fill:#333333;}
	.st2{fill:#F3A353;}
	.st3{fill:#FDD2AD;}
	.st4{fill:#FDD1AD;}
	.st5{fill:#E4B490;}
	.st6{fill:#E2B38F;}
	.st7{fill:#F0EFEF;}
	.st8{fill:#FED2AD;}
	.st9{fill:#E4B591;}
	.st10{fill:#353535;}
	.st11{fill:#FEFDFC;}
	.st12{fill:#535250;}
	.st13{fill:#3A3937;}
	.st14{fill:#070707;}
</style>
<g id="Calque_2">
	<rect class="st0" width="60" height="60"/>
</g>
<g id="Calque_1">
	<g>
		<path class="st1" d="M32.11,0.12c0,0.18,0.12,0.21,0.27,0.23c2.95,0.48,5.43,1.89,7.38,4.14c1.61,1.85,2.56,4.02,2.91,6.48
			c0.25,1.78,0.22,3.56,0.21,5.34c0,1.61,0,3.21-0.01,4.82c-0.14-0.06-0.29-0.1-0.43-0.17c-2.95-1.57-4.9-4.07-6.36-7.03
			c-0.29-0.59-0.52-1.2-0.8-1.84c-0.18,0.17-0.33,0.29-0.47,0.43c-0.93,0.92-2,1.65-3.15,2.22c-4.37,2.17-9.06,2.94-13.86,3.21
			c0-0.54,0-1.09-0.01-1.63c0-1.22,0-2.44,0-3.66c-0.01-2.87,0.88-5.43,2.63-7.67c1.96-2.52,4.49-4.11,7.65-4.63
			c0.15-0.02,0.27-0.05,0.27-0.24C29.61,0.12,30.86,0.12,32.11,0.12z"/>
		<path class="st2" d="M41.12,37.92c-1.47-0.89-3.06-1.41-4.77-1.56c-0.04,0.08-0.08,0.16-0.12,0.25c0.18,2.18-0.5,4.04-2.19,5.44
			c-1.87,1.56-4.02,1.93-6.24,0.99c-2.21-0.94-3.55-2.68-3.79-5.17c-0.03-0.41-0.15-0.81-0.08-1.23c-0.01-0.1-0.03-0.19-0.04-0.29
			c-1.71,0.16-3.3,0.68-4.77,1.57c0.18,0.23,0.09,0.49,0.1,0.74V60h21.8c0-7.11-0.01-14.23,0-21.34
			C41.02,38.41,40.94,38.15,41.12,37.92z M37.98,58.15c0,0.5-0.16,0.58-0.6,0.58c-2.42-0.02-4.84-0.01-7.26-0.01
			s-4.84-0.01-7.26,0.01c-0.43,0-0.61-0.07-0.61-0.57c0.03-3.52,0.02-7.05,0-10.57c0-0.46,0.15-0.55,0.57-0.55
			c4.86,0.01,9.72,0.02,14.59,0c0.48-0.01,0.57,0.16,0.57,0.6C37.96,51.15,37.96,54.65,37.98,58.15z"/>
		<path class="st3" d="M19.22,38.66V60h-5.74c0-3.93,0-7.86,0.01-11.79c0-1.82,0.31-3.59,1.1-5.26c1.01-2.13,2.52-3.8,4.53-5.03
			C19.3,38.15,19.21,38.41,19.22,38.66z"/>
		<path class="st3" d="M41.02,60c0-7.11-0.01-14.23,0-21.34c0-0.25-0.08-0.51,0.1-0.74c2.51,1.55,4.23,3.73,5.11,6.57
			c0.38,1.21,0.52,2.46,0.52,3.72c0.01,3.93,0.01,7.86,0.01,11.79H41.02z"/>
		<path class="st4" d="M42.88,21.13c-0.14-0.06-0.29-0.1-0.42-0.18c-2.96-1.57-4.91-4.07-6.36-7.02c-0.29-0.59-0.52-1.2-0.8-1.84
			c-0.19,0.16-0.33,0.28-0.47,0.42c-0.93,0.92-2,1.65-3.15,2.22c-4.37,2.17-9.06,2.95-13.86,3.22c-0.01,1.97-0.01,3.95-0.01,5.92
			c0.03,0.16,0.07,0.31,0.08,0.46c0.33,3.77,2.01,6.77,4.96,9.08c0.36,0.28,0.81,0.46,1.09,0.85c0.8,0.24,1.5,0.71,2.3,0.98
			c3.27,1.08,6.45,0.92,9.56-0.59c0.16-0.07,0.31-0.16,0.5-0.15c0.17-0.26,0.46-0.34,0.7-0.5c2.49-1.66,4.26-3.87,5.22-6.74
			c0.37-1.11,0.48-2.26,0.67-3.4C42.89,22.95,42.89,22.04,42.88,21.13z M26.23,22.68c-0.4,0.35-0.85,0.5-1.28,0.07
			c-0.39-0.39-0.32-0.83,0.01-1.24c-0.05-0.48-0.62-0.59-0.71-1.04c-0.15-0.03-0.31-0.03-0.46-0.08c-0.37-0.12-0.6-0.38-0.58-0.78
			c0.01-0.41,0.24-0.7,0.63-0.74c1.13-0.1,2.26-0.12,3.38,0.01c0.53,0.06,0.68,0.44,0.59,1.08c0.7,0.02,1.39-0.03,1.97,0.53
			c0.47,0.46,0.54,1.03,0.56,1.62c0.03,0.76,0.01,1.53,0.01,2.3c0,1.14,0.41,1.57,1.53,1.59c0.11,0,0.22,0.01,0.37,0.02
			c-0.92,0.55-2.3,0.3-3.17-0.54C28.12,24.55,27.25,23.55,26.23,22.68z M33.76,28.75c-0.04,0.09-0.1,0.16-0.15,0.25
			c-0.28,1.21-1.14,1.86-2.23,2.22c-1.82,0.59-3.87-0.47-4.34-2.21c-0.06-0.14-0.15-0.28-0.18-0.43c-0.16-0.66-0.04-0.81,0.63-0.81
			h5.61C33.93,27.77,34.05,27.95,33.76,28.75z M35.16,23.01c-0.45,0.02-0.84-0.38-0.84-0.86c0-0.46,0.35-0.83,0.79-0.84
			c0.48-0.01,0.87,0.35,0.88,0.82C36,22.6,35.63,23,35.16,23.01z M36.58,20.44h-1.41c-0.48,0-0.97,0.01-1.46-0.01
			c-0.54-0.02-0.91-0.36-0.89-0.81c0.03-0.53,0.38-0.78,0.85-0.79c0.99-0.03,1.99-0.03,2.98,0c0.48,0.02,0.81,0.29,0.83,0.81
			C37.5,20.08,37.12,20.4,36.58,20.44z"/>
		<path class="st5" d="M23.94,34.26c0.8,0.24,1.5,0.71,2.3,0.97c3.27,1.08,6.45,0.93,9.56-0.58c0.16-0.08,0.31-0.17,0.5-0.15
			c0.02,0.62,0.03,1.24,0.05,1.86c-0.04,0.08-0.08,0.17-0.12,0.25c-0.24,0.02-0.44,0.13-0.66,0.23c-3.64,1.7-7.28,1.7-10.92-0.01
			c-0.23-0.11-0.45-0.24-0.72-0.19c-0.01-0.09-0.03-0.19-0.04-0.28C23.91,35.66,23.92,34.96,23.94,34.26z"/>
		<path class="st6" d="M17.82,17.95c0,1.98,0,3.95-0.01,5.93C16.16,23.4,15,21.85,15,20.09c0-1.75,1.14-3.28,2.81-3.78
			C17.81,16.86,17.81,17.4,17.82,17.95z"/>
		<path class="st6" d="M42.89,23.86c0-0.91,0-1.82,0-2.74c0-1.61,0-3.21,0.01-4.82c1.73,0.6,2.85,2.12,2.8,3.85
			C45.64,21.9,44.5,23.41,42.89,23.86z"/>
		<path class="st7" d="M37.41,47.04c-4.87,0.02-9.73,0.01-14.59,0c-0.42,0-0.57,0.09-0.57,0.55c0.02,3.52,0.03,7.05,0,10.57
			c0,0.5,0.18,0.57,0.61,0.57c2.42-0.02,4.84-0.01,7.26-0.01s4.84-0.01,7.26,0.01c0.44,0,0.6-0.08,0.6-0.58
			c-0.02-3.5-0.02-7,0-10.51C37.98,47.2,37.89,47.03,37.41,47.04z M29.2,56.28c-0.95,0.01-1.91,0.01-2.87,0
			c-0.15,0-0.37,0.12-0.43-0.14c-0.05-0.2,0.01-0.37,0.17-0.53c0.63-0.62,1.29-1.2,1.84-1.9c0.18-0.23,0.36-0.47,0.51-0.72
			c0.38-0.65,0.38-1.35,0.02-1.76c-0.38-0.41-1.13-0.45-1.79-0.06c-0.27,0.16-0.43,0.21-0.54-0.16c-0.07-0.22,0.04-0.28,0.16-0.37
			c0.74-0.57,2.05-0.57,2.69-0.01c0.65,0.57,0.73,1.53,0.22,2.49c-0.42,0.8-1.07,1.4-1.68,2.02c-0.13,0.14-0.29,0.25-0.43,0.37
			c0.03,0.04,0.05,0.08,0.07,0.12h2.09c0.23,0,0.45-0.05,0.45,0.34C29.67,56.37,29.42,56.28,29.2,56.28z M33.96,56.29
			c-0.92-0.01-1.84,0.01-2.76-0.01c-0.21,0-0.5,0.16-0.61-0.14c-0.12-0.3,0.12-0.49,0.32-0.69c0.59-0.58,1.21-1.12,1.71-1.78
			c0.21-0.26,0.4-0.53,0.56-0.82c0.33-0.6,0.28-1.28-0.1-1.65c-0.35-0.35-1.08-0.38-1.65-0.12c-0.17,0.08-0.35,0.49-0.59,0.05
			c-0.23-0.43,0.13-0.5,0.36-0.63c0.35-0.19,0.73-0.28,1.13-0.28c1.48-0.03,2.3,1.26,1.67,2.63c-0.4,0.9-1.1,1.56-1.77,2.25
			c-0.14,0.15-0.35,0.25-0.44,0.53c0.75,0,1.46,0.01,2.17,0c0.24-0.01,0.4,0,0.4,0.33C34.36,56.29,34.19,56.29,33.96,56.29z"/>
		<path class="st8" d="M23.93,36.64c0.27-0.05,0.49,0.08,0.72,0.19c3.64,1.71,7.28,1.7,10.92,0.01c0.21-0.1,0.42-0.21,0.66-0.23
			c0.18,2.19-0.5,4.04-2.18,5.45c-1.87,1.56-4.02,1.93-6.24,0.99c-2.21-0.94-3.56-2.68-3.79-5.17
			C23.98,37.46,23.86,37.06,23.93,36.64z"/>
		<path class="st9" d="M27.81,19.96c0.7,0.02,1.39-0.03,1.97,0.53c0.47,0.46,0.54,1.03,0.56,1.61c0.03,0.77,0.01,1.53,0.01,2.3
			c0,1.15,0.41,1.57,1.53,1.59c0.11,0,0.22,0.01,0.37,0.02c-0.92,0.55-2.31,0.3-3.18-0.54c-0.96-0.92-1.83-1.93-2.84-2.8
			c0.2-0.42,0.22-0.83-0.15-1.16c-0.36-0.33-0.74-0.22-1.12,0c-0.05-0.48-0.63-0.59-0.71-1.04c0.86-0.01,1.71-0.03,2.57-0.02
			C27.24,20.45,27.58,20.34,27.81,19.96z"/>
		<path class="st10" d="M33.61,29c-0.28,1.22-1.14,1.87-2.23,2.22c-1.82,0.59-3.87-0.47-4.33-2.21C29.23,29,31.42,29,33.61,29z"/>
		<path class="st11" d="M33.61,29c-2.19,0-4.38,0.01-6.57,0.01c-0.06-0.14-0.15-0.28-0.18-0.43c-0.16-0.66-0.04-0.8,0.63-0.8
			c1.87,0,3.74,0,5.61,0c0.83,0,0.95,0.18,0.65,0.97C33.72,28.84,33.66,28.91,33.61,29z"/>
		<path class="st12" d="M27.81,19.96c-0.23,0.38-0.57,0.49-0.99,0.48c-0.85-0.01-1.71,0.01-2.57,0.02
			c-0.15-0.02-0.31-0.03-0.46-0.08c-0.37-0.12-0.6-0.38-0.58-0.79c0.02-0.4,0.24-0.7,0.63-0.73c1.13-0.1,2.26-0.12,3.38,0.01
			C27.75,18.94,27.9,19.32,27.81,19.96z"/>
		<path class="st12" d="M35.17,20.44c-0.49,0-0.97,0.01-1.46,0c-0.54-0.02-0.91-0.36-0.89-0.81c0.03-0.53,0.37-0.78,0.85-0.79
			c0.99-0.03,1.99-0.03,2.98,0c0.48,0.01,0.81,0.29,0.83,0.81c0.02,0.45-0.36,0.77-0.91,0.8c-0.04,0-0.08,0-0.12,0
			C36.03,20.44,35.6,20.44,35.17,20.44z"/>
		<path class="st13" d="M24.96,21.51c0.37-0.21,0.75-0.32,1.12,0c0.38,0.34,0.35,0.74,0.15,1.16c-0.41,0.35-0.85,0.5-1.28,0.08
			C24.56,22.36,24.63,21.92,24.96,21.51z"/>
		<path class="st13" d="M35.99,22.13C36,22.6,35.63,23,35.16,23.01c-0.45,0.02-0.84-0.38-0.84-0.86c0-0.46,0.35-0.83,0.79-0.84
			C35.59,21.3,35.98,21.66,35.99,22.13z"/>
		<path class="st14" d="M31.79,55.63c0.74,0,1.45,0.01,2.17,0c0.24,0,0.4,0,0.4,0.33c0,0.33-0.17,0.33-0.4,0.33
			c-0.92,0-1.84,0.01-2.75-0.01c-0.21,0-0.5,0.16-0.62-0.14c-0.12-0.31,0.13-0.5,0.33-0.69c0.59-0.58,1.21-1.12,1.71-1.78
			c0.2-0.26,0.39-0.54,0.55-0.83c0.33-0.6,0.28-1.28-0.1-1.65c-0.35-0.35-1.09-0.38-1.65-0.12c-0.17,0.08-0.35,0.49-0.59,0.05
			c-0.23-0.43,0.13-0.5,0.36-0.63c0.35-0.19,0.72-0.28,1.12-0.29c1.49-0.02,2.3,1.26,1.68,2.64c-0.41,0.9-1.1,1.56-1.77,2.25
			C32.09,55.25,31.88,55.35,31.79,55.63z"/>
		<path class="st14" d="M27.14,55.63c0.69,0,1.39,0,2.08,0c0.24,0,0.45-0.05,0.45,0.34c0,0.4-0.26,0.31-0.47,0.32
			c-0.96,0.01-1.91,0.01-2.87,0c-0.15,0-0.38,0.12-0.44-0.14c-0.04-0.2,0.01-0.37,0.17-0.53c0.63-0.62,1.29-1.2,1.84-1.9
			c0.18-0.23,0.36-0.47,0.51-0.72c0.39-0.65,0.39-1.36,0.02-1.76c-0.37-0.41-1.13-0.46-1.79-0.07c-0.27,0.16-0.42,0.21-0.54-0.15
			c-0.07-0.22,0.05-0.28,0.17-0.37c0.74-0.56,2.04-0.57,2.68,0c0.65,0.57,0.73,1.52,0.23,2.49c-0.42,0.8-1.07,1.4-1.69,2.02
			c-0.13,0.13-0.28,0.25-0.42,0.37C27.1,55.55,27.12,55.59,27.14,55.63z"/>
	</g>
</g>
</svg>
