<?xml version="1.0" encoding="utf-8"?>
<!-- Generator: Adobe Illustrator 23.0.3, SVG Export Plug-In . SVG Version: 6.00 Build 0)  -->
<svg version="1.1" id="Calque_1" xmlns="http://www.w3.org/2000/svg" xmlns:xlink="http://www.w3.org/1999/xlink" x="0px" y="0px"
	 viewBox="0 0 60 60" style="enable-background:new 0 0 60 60;" xml:space="preserve">
<style type="text/css">
	.st0{fill:#252122;}
</style>
<g>
	<path class="st0" d="M29.9,54.6c-0.9-1.8-1.8-3.6-2.7-5.4c-3.6-7.3-7.3-14.6-10.9-21.9c-2.8-5.7-1.7-12.6,2.7-17.2
		c4.4-4.6,11.3-5.9,17.1-3.4c5.9,2.6,9.5,8.5,9,14.9c-0.1,2.1-0.7,4.1-1.6,6c-4.4,8.8-8.8,17.6-13.2,26.4
		C30.3,54.2,30.2,54.4,29.9,54.6z M30.1,28.5c4.4,0,8-3.6,8-8c0-4.4-3.7-8-8-8c-4.4,0-8,3.6-8,8C22,24.9,25.6,28.5,30.1,28.5z"/>
</g>
</svg>
