<?xml version="1.0" encoding="utf-8"?>
<!-- Generator: Adobe Illustrator 23.0.3, SVG Export Plug-In . SVG Version: 6.00 Build 0)  -->
<svg version="1.1" id="Calque_1" xmlns="http://www.w3.org/2000/svg" xmlns:xlink="http://www.w3.org/1999/xlink" x="0px" y="0px"
	 viewBox="0 0 60 60" style="enable-background:new 0 0 60 60;" xml:space="preserve">
<style type="text/css">
	.st0{fill:#161616;}
</style>
<g>
	<path class="st0" d="M31.5,51.6C26,51.5,21.2,49.7,17.1,46c-4.1-3.7-6.5-8.4-7-13.9c-0.6-6.2,1.2-11.8,5.3-16.5
		c3.5-4,8-6.5,13.3-7.1c9-1,16,2.3,21.1,9.7c0.5,0.8,0.5,0.9-0.3,1.3c-5.7,3.3-11.4,6.6-17.1,9.9c-0.1,0.1-0.2,0.1-0.3,0.2
		c-0.3,0.2-0.2,0.3,0,0.5c0.3,0.2,0.7,0.4,1,0.6c5.5,3.2,10.9,6.3,16.4,9.5c0.1,0,0.2,0.1,0.2,0.1c0.6,0.3,0.6,0.4,0.3,1
		c-0.6,1-1.3,2-2.1,2.8c-3.7,4.1-8.3,6.5-13.7,7.2C33.2,51.6,32.4,51.6,31.5,51.6z M28.4,13.5c-2.1,0-3.8,1.7-3.8,3.8
		c0,2,1.8,3.8,3.8,3.8c2,0,3.7-1.7,3.7-3.8C32.1,15.1,30.5,13.5,28.4,13.5z"/>
</g>
</svg>
