<?xml version="1.0" encoding="utf-8"?>
<!-- Generator: Adobe Illustrator 23.0.3, SVG Export Plug-In . SVG Version: 6.00 Build 0)  -->
<svg version="1.1" id="Calque_1" xmlns="http://www.w3.org/2000/svg" xmlns:xlink="http://www.w3.org/1999/xlink" x="0px" y="0px"
	 viewBox="0 0 60 60" style="enable-background:new 0 0 60 60;" xml:space="preserve">
<g>
	<path d="M38.8,54c-11.7,0-23.2,0-35,0c0.3-6.1,2.6-10.9,7.6-14.2c6.2-4.2,12.8-4.4,19.1-0.5C35.9,42.6,38.6,47.5,38.8,54z"/>
	<path d="M31.6,23.7C31.6,29.5,27,34,21.2,34c-5.7,0-10.4-4.7-10.3-10.4c0-5.7,4.7-10.3,10.4-10.3C27.1,13.3,31.7,17.9,31.6,23.7z"
		/>
	<path d="M56.1,46.9c-5.2,0-10.2,0-15.2,0c-0.4,0-1.1-0.4-1.2-0.7c-2.4-5.2-6.3-8.8-11.6-10.9c-0.1,0-0.1-0.2-0.1-0.1
		c1.4-1.4,2.7-2.9,4.1-4.3c0.2-0.3,0.6-0.4,1-0.5c10.5-3.9,22.6,4.1,23.1,15.3C56.2,46,56.2,46.4,56.1,46.9z"/>
	<path d="M34.2,23.7c0-3.9-1.4-7.1-4.3-9.7c-0.8-0.7-0.9-1.3-0.4-2.2c2.4-4.9,8.4-7.2,13.5-5c5.1,2.2,7.5,8,5.6,13.2
		c-1.9,5.2-7.7,7.9-12.9,6.2C34.2,25.8,34.2,25.8,34.2,23.7z"/>
</g>
</svg>
