<?xml version="1.0" encoding="utf-8"?>
<!-- Generator: Adobe Illustrator 23.0.3, SVG Export Plug-In . SVG Version: 6.00 Build 0)  -->
<svg version="1.1" id="Calque_1" xmlns="http://www.w3.org/2000/svg" xmlns:xlink="http://www.w3.org/1999/xlink" x="0px" y="0px"
	 viewBox="0 0 60 60" style="enable-background:new 0 0 60 60;" xml:space="preserve">
<style type="text/css">
	.st0{fill:#231F20;}
</style>
<g>
	<path class="st0" d="M29.07,29.22c-6.31-0.61-10.8-6.08-10.31-12.26c0.46-5.76,5.38-10.31,11.25-10.31
		c5.85-0.01,10.79,4.55,11.25,10.32c0.49,6.25-4.1,11.71-10.37,12.24c0.84,0.08,1.68,0.17,2.51,0.34
		c6.85,1.35,12.27,6.93,13.44,13.83c0.15,0.87,0.21,1.75,0.25,2.64c0.05,1.35-0.49,2.44-1.45,3.34c-1.13,1.07-2.5,1.72-3.94,2.25
		c-2.34,0.85-4.76,1.28-7.23,1.53c-3.19,0.32-6.38,0.3-9.57-0.07c-2.68-0.32-5.32-0.84-7.8-1.96c-0.66-0.3-1.29-0.65-1.89-1.06
		c-1.64-1.15-2.43-2.65-2.27-4.71c0.38-4.75,2.26-8.74,5.84-11.89c2.76-2.43,5.99-3.8,9.66-4.15
		C28.65,29.26,28.86,29.24,29.07,29.22z"/>
</g>
</svg>
