<?xml version="1.0" encoding="utf-8"?>
<!-- Generator: Adobe Illustrator 23.0.3, SVG Export Plug-In . SVG Version: 6.00 Build 0)  -->
<svg version="1.1" id="Calque_1" xmlns="http://www.w3.org/2000/svg" xmlns:xlink="http://www.w3.org/1999/xlink" x="0px" y="0px"
	 viewBox="0 0 60 60" style="enable-background:new 0 0 60 60;" xml:space="preserve">
<g>
	<g>
		<path d="M56.3,17.9c0-1.5-0.4-1.8-1.8-1.3c-5.1,1.8-10.3,3.7-15.4,5.5c-0.5,0.2-1.1,0.1-1.6,0c-2.8-1-5.6-2-8.3-3
			c-0.8-0.3-1.7-0.6-2.6-1l-0.1,0L26,19.8c1.6,0.6,3.1,1.1,4.7,1.7c2.3,0.8,4.5,1.7,6.8,2.5c0.5,0.2,1.2,0.2,1.7,0
			c4.8-1.7,9.6-3.4,14.4-5.1c0.3-0.1,0.6-0.2,0.9-0.3v1c0,8.6,0,17.2,0,25.8c0,0.7-0.2,1-0.9,1.2c-4.9,1.7-9.7,3.4-14.6,5.1
			c-0.5,0.2-1.1,0.2-1.6,0c-4.8-1.7-9.6-3.5-14.4-5.3c-1-0.4-1.8-0.3-2.8,0c-4.6,1.7-9.3,3.3-13.9,5c-0.2,0.1-0.5,0.2-0.8,0.3v-0.9
			c0-8.6,0-17.3,0-25.9c0-0.7,0.2-1,0.8-1.2c0.9-0.3,3.9-0.9,7.3-1.5c0.1,0,0.2,0,0.3,0c0-0.3-0.2-2.6-0.9-2.7c-0.1,0-0.1,0-0.2,0
			c-0.2,0.1-0.5,0.2-0.8,0.3c-2.4,0.9-4.8,1.7-7.1,2.5c-0.8,0.3-1.1,0.7-1.1,1.5c0,9.5,0,19,0,28.4c0,1.5,0.4,1.8,1.8,1.3
			c5.1-1.8,10.3-3.7,15.4-5.5c0.5-0.2,1.1-0.2,1.5,0c5,1.8,9.9,3.6,14.9,5.4c0.7,0.3,1.3,0.3,2,0c5.3-1.9,10.5-3.8,15.8-5.6
			c0.9-0.3,1.2-0.8,1.2-1.7C56.3,36.8,56.3,27.3,56.3,17.9z"/>
		<path d="M47.4,33c-1.5,0-2.6,1.2-2.6,2.7c0,1.5,1.2,2.6,2.7,2.6c1.5,0,2.6-1.2,2.6-2.7C50.1,34.1,48.9,32.9,47.4,33z M47.5,36.8
			c-0.4-0.6-0.8-0.9-0.8-1.2c0-0.3,0.5-0.8,0.7-0.8c0.3,0.1,0.7,0.5,0.8,0.8C48.3,35.9,47.9,36.3,47.5,36.8z"/>
		<path d="M47.5,36.8c-0.4-0.6-0.8-0.9-0.8-1.2c0-0.3,0.5-0.8,0.7-0.8c0.3,0.1,0.7,0.5,0.8,0.8C48.3,35.9,47.9,36.3,47.5,36.8z"/>
		<path d="M11.6,38.4c-0.6,0.3-1.3,0.8-1.8,0c-0.5-0.7,0.2-1.2,0.7-1.6c-0.2-0.6-0.8-1.3,0.1-1.8c0.8-0.4,1.1,0.2,1.5,0.8
			c0.6-0.3,1.3-0.8,1.8,0.1c0.4,0.8-0.3,1.1-0.8,1.5c0.3,0.6,0.8,1.3,0,1.8C12.4,39.7,12,39,11.6,38.4z"/>
		<path d="M29.7,35.3c-0.2,0.3-0.3,0.6-0.5,0.8c-1.1,0.9-2.1,1.8-3.3,2.7c-0.5,0.4-1.1,0.3-1.4-0.3c-0.3-0.6,0-0.9,0.5-1.3
			c1-0.7,1.8-1.5,2.8-2.3c0.3-0.2,0.7-0.4,1.1-0.4C29.2,34.6,29.5,35,29.7,35.3z"/>
		<path d="M35.5,30c-0.3,0.2-0.6,0.6-0.9,0.7c-1.2,0.1-2.1,0.7-2.9,1.6c-0.4,0.5-0.9,0.7-1.4,0.2c-0.5-0.5-0.3-1,0.1-1.4
			c1.1-1.1,2.3-2,3.9-2.1C35,28.9,35.4,29.2,35.5,30z"/>
		<path d="M43,32.4c0,0.8-0.6,1.2-1.2,0.9c-1.2-0.6-2.4-1.2-3.5-1.9c-0.2-0.2-0.4-0.8-0.3-1.1c0.1-0.2,0.7-0.6,0.9-0.5
			c1.3,0.6,2.6,1.3,3.8,2.1C42.9,32,43,32.4,43,32.4z"/>
		<path d="M20.4,39.8c-0.9-0.1-1.9-0.3-2.8-0.4c-0.6-0.1-1-0.5-0.8-1.1c0.1-0.6,0.6-0.7,1.2-0.6c0.9,0.1,1.9,0.3,2.8,0.3
			c0.7,0.1,1.3,0.2,1.3,1c0,0.8-0.7,0.9-1.3,0.8C20.6,39.8,20.5,39.7,20.4,39.8C20.4,39.8,20.4,39.8,20.4,39.8z"/>
	</g>
	<g>
		<path d="M24.7,21.1c-0.8-0.3-1.5-0.6-2.3-0.9c-0.1,0-0.1,0.1-0.1,0.1c0.1,0,0.1,0,0.1-0.1C22.2,20.1,22,20,21.8,20
			c-0.2-0.1-0.4-0.2-0.6-0.3c-0.2-0.1-0.3-0.2-0.1-0.4c1-1.8,2.1-3.5,3.1-5.3c0.4-0.6,0.5-1.2,0.2-1.9c0-0.2-0.1-0.3-0.2-0.4
			c-0.4-0.7-1.1-1-1.8-1.1c-1.8-0.2-3.5-0.4-5.3-0.6c-0.8-0.1-1.7-0.2-2.4,0.4c-0.2,0.1-0.4,0.2-0.5,0.3c-1.1,0.5-2.2,1-3.3,1.5
			c-0.7,0.3-0.9,1-0.7,1.6c0.3,0.6,1,0.8,1.7,0.5c1.3-0.6,2.6-1.2,3.9-1.9c0.2-0.1,0.3-0.1,0.5-0.1c1.1,0.1,2.2,0.2,3.3,0.3
			c0.2,0,0.2,0.1,0.1,0.2c-0.1,0.1-0.1,0.2-0.2,0.3c-0.9,1.5-1.9,3.1-2.7,4.6c-0.7,1.2-0.2,2.7,1.1,3.1c1.4,0.5,2.7,1,4.1,1.5
			c0.2,0.1,0.3,0.2,0.1,0.4c-1.1,1.6-2.2,3.3-3.3,4.9c-0.2,0.2-0.3,0.4-0.3,0.6c-0.1,0.3,0,0.5,0.2,0.8c0.4,0.7,1.4,0.8,1.9,0.1
			c0.7-1,1.4-2.1,2.2-3.1c0.6-0.8,1.1-1.7,1.7-2.5c0.2-0.2,0.3-0.4,0.5-0.7l0,0c0.2-0.2,0.2-0.3,0.2-0.5
			C25.4,21.8,25.2,21.3,24.7,21.1z M20.3,16.6L20.3,16.6L20.3,16.6z M19.2,17.4C19.1,17.4,19.1,17.4,19.2,17.4
			C19.1,17.4,19.1,17.4,19.2,17.4z M19.2,17.3C19.2,17.3,19.2,17.3,19.2,17.3C19.2,17.3,19.2,17.3,19.2,17.3L19.2,17.3L19.2,17.3z
			 M19.3,17.3L19.3,17.3L19.3,17.3L19.3,17.3z M20.3,16.6L20.3,16.6L20.3,16.6C20.3,16.7,20.3,16.6,20.3,16.6z M20.4,16.6L20.4,16.6
			L20.4,16.6C20.3,16.6,20.3,16.6,20.4,16.6C20.4,16.6,20.4,16.5,20.4,16.6C20.4,16.5,20.4,16.6,20.4,16.6z M20.4,16.5
			C20.4,16.5,20.4,16.5,20.4,16.5C20.4,16.5,20.4,16.5,20.4,16.5z M22,20.4L22,20.4C22,20.4,22,20.4,22,20.4z M20.4,27.1L20.4,27.1
			c0,0.1,0,0.1-0.1,0.1C20.3,27.2,20.4,27.2,20.4,27.1L20.4,27.1L20.4,27.1z"/>
		<path d="M17.9,21.9c-0.8-0.2-1.3-0.7-1.8-1.3c-0.1-0.1-0.1-0.1-0.2-0.2c0,0.1-0.1,0.2-0.1,0.2c-0.4,1.3-0.8,2.6-1.2,3.9
			c-0.1,0.2-0.2,0.3-0.3,0.5c-1.7,1.6-3.4,3.3-5.1,4.9c-0.6,0.6-0.6,1.3-0.2,1.8c0.5,0.5,1.3,0.5,1.9,0c1.7-1.6,3.4-3.3,5.1-4.9
			c0.4-0.4,0.8-0.7,0.9-1.3c0.1-0.3,0.2-0.6,0.3-0.9c0.3-0.8,0.5-1.7,0.8-2.5C18.2,22,18.2,21.9,17.9,21.9z M13.7,28.2L13.7,28.2
			C13.7,28.2,13.7,28.2,13.7,28.2C13.7,28.2,13.7,28.2,13.7,28.2z M13.7,28.2C13.8,28.2,13.8,28.2,13.7,28.2
			c0.1,0.1,0.1,0.1,0.1,0.1S13.8,28.2,13.7,28.2C13.8,28.2,13.8,28.2,13.7,28.2z M13.7,28.2L13.7,28.2c0,0.1-0.1,0.2-0.1,0.2
			C13.6,28.3,13.6,28.3,13.7,28.2L13.7,28.2L13.7,28.2z"/>
		<path d="M33.1,13.5c-0.2-0.8-1-1.1-1.7-0.7c-1.3,0.8-2.6,1.7-3.8,2.5c-0.2,0.1-0.3,0.2-0.5,0c-0.2-0.2-0.3-0.3-0.5-0.5
			c-0.5-0.4-0.9-0.8-1.4-1.3c-0.2,0.7-0.5,1.2-0.8,1.8c-0.1,0.1-0.2,0.2,0,0.3c0.7,0.7,1.4,1.3,2.2,2c0.4,0.3,0.8,0.4,1.2,0.1
			c1.6-1,3.3-2.1,4.9-3.1C33,14.2,33.2,13.9,33.1,13.5z"/>
		<path d="M23.2,8.8c-0.1,1.1,0.9,2.3,1.9,2.4c0.2,0.1,0.4,0.1,0.6,0.1c1.3,0.1,2.6-1.1,2.5-2.5c0-0.2,0.1-0.4-0.1-0.6
			c-0.2-0.9-0.7-1.5-1.5-1.9c-0.9-0.4-1.7-0.2-2.5,0.4c-0.4,0.3-0.7,0.6-0.8,1c0,0.1,0,0.1-0.1,0.1C23.2,7.9,23.2,8,23.2,8
			c-0.1,0.2-0.1,0.4-0.1,0.6C23.1,8.7,23.1,8.8,23.2,8.8z"/>
	</g>
</g>
</svg>
