<?xml version="1.0" encoding="utf-8"?>
<!-- Generator: Adobe Illustrator 23.0.3, SVG Export Plug-In . SVG Version: 6.00 Build 0)  -->
<svg version="1.1" id="Calque_1" xmlns="http://www.w3.org/2000/svg" xmlns:xlink="http://www.w3.org/1999/xlink" x="0px" y="0px"
	 viewBox="0 0 60 60" style="enable-background:new 0 0 60 60;" xml:space="preserve">
<path d="M50.67,24.96c-0.69-0.35-1.44-0.54-2.25-0.54c-0.06,0-0.12,0-0.17,0c0,0,0,0,0,0c0,0,0,0,0,0
	c-5.53,0.01-11.05,0.04-16.58,0.07c-2.13,0.01-4.25,0.02-6.38,0.02c-0.07,0-0.14-0.01-0.29-0.02c0.92-0.94,1.78-1.82,2.65-2.71
	c1.07-1.09,2.15-2.16,3.2-3.26c1.57-1.64,2.08-3.58,1.34-5.74c-0.74-2.18-2.35-3.43-4.62-3.71c-1.76-0.22-3.31,0.36-4.56,1.63
	c-1.94,1.96-3.88,3.94-5.82,5.91c-3.16,3.21-6.31,6.42-9.47,9.63c-0.83,0.84-1.36,1.84-1.54,3.01c-0.04,0.6-0.04,1.2,0,1.8
	c0.17,1.21,0.74,2.22,1.58,3.09c4.93,5.02,9.88,10.01,14.78,15.05c2.74,2.82,7.13,2.16,8.93-1.01c1.26-2.21,0.86-4.86-1.03-6.78
	c-1.85-1.88-3.7-3.77-5.54-5.65c-0.02-0.02-0.04-0.05-0.06-0.08c0.15-0.12,0.33-0.06,0.48-0.06c7.51-0.04,15.03-0.08,22.54-0.1
	c0.03,0,0.05,0,0.08,0c0.1,0.01,0.21,0.01,0.32,0.01c3.11,0,5.64-2.48,5.64-5.54C53.87,27.76,52.57,25.85,50.67,24.96z"/>
</svg>
