<?xml version="1.0" encoding="utf-8"?>
<!-- Generator: Adobe Illustrator 23.0.3, SVG Export Plug-In . SVG Version: 6.00 Build 0)  -->
<svg version="1.1" id="Glyph" xmlns="http://www.w3.org/2000/svg" xmlns:xlink="http://www.w3.org/1999/xlink" x="0px" y="0px"
	 viewBox="0 0 800 800" style="enable-background:new 0 0 800 800;" xml:space="preserve">
<style type="text/css">
	.st0{fill:#F5564E;}
</style>
<path id="XMLID_219_" class="st0" d="M771.3,413.7c-8.3,22-28.8,36.3-52.3,36.3H700v275c0,13.8-11.2,25-25,25H525V575
	c0-68.9-56.1-125-125-125s-125,56.1-125,125v175H125c-13.8,0-25-11.2-25-25V450H80.9c-23.5,0-44-14.2-52.3-36.3
	c-8.3-22.1-2.2-46.3,15.5-61.8l292-276.5c35.9-33.9,92-33.9,127.8,0l292.7,277.1C773.5,367.4,779.6,391.7,771.3,413.7z"/>
</svg>
