<?xml version="1.0" encoding="utf-8"?>
<!-- Generator: Adobe Illustrator 23.0.3, SVG Export Plug-In . SVG Version: 6.00 Build 0)  -->
<svg version="1.1" id="Calque_1" xmlns="http://www.w3.org/2000/svg" xmlns:xlink="http://www.w3.org/1999/xlink" x="0px" y="0px"
	 viewBox="0 0 60 60" style="enable-background:new 0 0 60 60;" xml:space="preserve">
<path d="M54.85,56.37c-16.56,0-33.08,0-49.69,0c-0.1-2.93,0.58-5.54,2.48-7.77c2.12-2.49,5.02-3.73,7.95-4.93
	c1.75-0.72,3.48-1.51,5.17-2.35c1.27-0.63,2.06-1.64,2.06-3.16c-0.01-1.58,0.36-3.2-1.01-4.51c-0.41-0.39-0.6-1.04-0.83-1.6
	c-0.58-1.39-0.94-2.77-2.08-4.01c-1.36-1.49-1.66-3.63-0.55-5.67c0.2-0.37,0.13-0.92,0.09-1.37c-0.21-2.29-0.68-4.58-0.62-6.85
	c0.15-6.06,3.87-9.98,9.93-10.45c1.97-0.15,4.1-0.09,5.96,0.49c2.05,0.65,3.96,1.9,5.79,3.1c1.79,1.17,2.5,3.1,2.86,5.15
	c0.49,2.85,0.08,5.63-0.65,8.39c-0.19,0.71-0.27,1.3,0.15,2.04c0.99,1.76,0.13,4.81-1.47,6.01c-0.33,0.25-0.48,0.76-0.68,1.18
	c-0.71,1.52-1.42,3.05-2.11,4.58c-0.14,0.31-0.3,0.65-0.32,0.99c-0.19,4.39,0.61,5.52,4.73,7.1c2.14,0.82,4.29,1.68,6.33,2.74
	C52.68,47.71,54.97,51.29,54.85,56.37z M8.04,53.84c14.72,0,29.3,0,43.94,0c-0.47-2.8-2.04-4.76-4.41-5.95
	c-2.73-1.38-5.6-2.48-8.38-3.76c-1.91-0.88-3.97-2.07-4.18-4.22c-0.23-2.39-1.21-5.04,0.9-7.31c0.72-0.77,0.98-2.01,1.35-3.07
	c0.25-0.71,0.33-1.49,0.5-2.31c1.03,0.08,1.68-0.42,1.73-1.4c0.04-0.83,0.14-1.89-0.29-2.45c-0.45-0.58-0.54-0.92-0.34-1.55
	c0.9-2.83,1.41-5.73,1.05-8.71c-0.2-1.6-0.63-3.25-2.11-4.05c-1.66-0.9-3.32-1.84-5.03-2.58c-1.36-0.58-3.1-0.5-4.64-0.38
	c-5.09,0.4-7.9,3.38-7.84,8.48c0.03,2.48,0.57,4.95,0.87,7.43c0.04,0.33,0.12,0.77-0.04,0.98c-1.46,1.87-1,3.72,0.74,4.24
	c0.86,2.04,1.33,4.07,2.48,5.56c0.85,1.1,1.02,2.04,0.97,3.23c-0.02,0.36-0.03,0.73,0.01,1.09c0.32,3.13-1.07,5.28-3.81,6.65
	c-0.97,0.49-1.98,0.9-2.97,1.35c-2.23,1.02-4.53,1.94-6.68,3.11C9.73,49.4,8.45,51.28,8.04,53.84z"/>
</svg>
