<?xml version="1.0" encoding="utf-8"?>
<!-- Generator: Adobe Illustrator 23.0.3, SVG Export Plug-In . SVG Version: 6.00 Build 0)  -->
<svg version="1.1" id="Calque_1" xmlns="http://www.w3.org/2000/svg" xmlns:xlink="http://www.w3.org/1999/xlink" x="0px" y="0px"
	 viewBox="0 0 60 60" style="enable-background:new 0 0 60 60;" xml:space="preserve">
<style type="text/css">
	.st0{clip-path:url(#SVGID_2_);fill:#16253A;}
	.st1{clip-path:url(#SVGID_2_);}
	.st2{clip-path:url(#SVGID_4_);fill:#FFFFFF;}
	.st3{clip-path:url(#SVGID_4_);fill:#87CEEB;}
	.st4{clip-path:url(#SVGID_4_);fill:#E8613D;}
</style>
<g>
	<g>
		<defs>
			<rect id="SVGID_1_" x="-6" y="-6" width="73" height="73"/>
		</defs>
		<clipPath id="SVGID_2_">
			<use xlink:href="#SVGID_1_"  style="overflow:visible;"/>
		</clipPath>
		<rect x="-6" y="-6" class="st0" width="73" height="72.7"/>
		<g class="st1">
			<defs>
				<rect id="SVGID_3_" x="-6" y="-6" width="73" height="73"/>
			</defs>
			<clipPath id="SVGID_4_">
				<use xlink:href="#SVGID_3_"  style="overflow:visible;"/>
			</clipPath>
			<path class="st2" d="M40.86,7.24c0.41,0,0.83,0.02,1.23,0.05c1.69,0.14,3.29,0.57,4.77,1.24c5.02,2.28,8.51,7.34,8.51,13.22
				c0,8.02-9.01,14.52-17.03,14.52V21.76H27.42h-1.07H11.57V7.29h15.85L40.86,7.24z"/>
			<path class="st3" d="M21.64,22.02h3.97v29.15h-14.5V32.56C11.11,26.74,15.82,22.02,21.64,22.02"/>
			<path class="st4" d="M55.1,51.17H36.39c-5.85,0-10.59-4.74-10.59-10.59V36.6h18.72c5.85,0,10.59,4.74,10.59,10.59V51.17z"/>
		</g>
	</g>
</g>
</svg>
