<?xml version="1.0" encoding="utf-8"?>
<!-- Generator: Adobe Illustrator 23.0.3, SVG Export Plug-In . SVG Version: 6.00 Build 0)  -->
<svg version="1.1" id="Calque_1" xmlns="http://www.w3.org/2000/svg" xmlns:xlink="http://www.w3.org/1999/xlink" x="0px" y="0px"
	 viewBox="0 0 60 60" style="enable-background:new 0 0 60 60;" xml:space="preserve">
<g>
	<path d="M30,7.76c-12.9,0-23.4,8.6-23.4,19.16c0,6.23,3.62,11.97,9.74,15.57c-0.85,3.97-2.75,6.75-2.77,6.79l-2.09,2.98l3.61-0.46
		c0.41-0.05,10.1-1.34,17-5.79c5.66-0.41,10.93-2.5,14.86-5.88c4.15-3.57,6.42-8.26,6.42-13.2C53.39,16.35,42.9,7.76,30,7.76z
		 M31.48,42.8l-0.44,0.03l-0.37,0.24c-4.01,2.7-9.39,4.2-12.77,4.93c0.71-1.59,1.46-3.69,1.82-6.13l0.17-1.13l-1.01-0.54
		c-5.67-2.97-9.06-7.94-9.06-13.29c0-8.79,9.04-15.94,20.17-15.94c11.12,0,20.17,7.15,20.17,15.94
		C50.17,35.23,41.96,42.2,31.48,42.8z"/>
	<path d="M50.17,26.91c0,8.32-8.21,15.29-18.69,15.89l-0.44,0.03l-0.37,0.24c-4.01,2.7-9.39,4.2-12.77,4.93
		c0.71-1.59,1.46-3.69,1.82-6.13l0.17-1.13l-1.01-0.54c-5.67-2.97-9.06-7.94-9.06-13.29c0-8.79,9.04-15.94,20.17-15.94
		C41.12,10.98,50.17,18.12,50.17,26.91z"/>
</g>
</svg>
