<?xml version="1.0" encoding="utf-8"?>
<!-- Generator: Adobe Illustrator 23.0.3, SVG Export Plug-In . SVG Version: 6.00 Build 0)  -->
<svg version="1.1" id="Calque_1" xmlns="http://www.w3.org/2000/svg" xmlns:xlink="http://www.w3.org/1999/xlink" x="0px" y="0px"
	 viewBox="0 0 60 60" style="enable-background:new 0 0 60 60;" xml:space="preserve">
<style type="text/css">
	.st0{fill:#F5564E;}
</style>
<path class="st0" d="M30,56L30,56c-3.3,0-6-2.7-6-6V10c0-3.3,2.7-6,6-6l0,0c3.3,0,6,2.7,6,6v40C36,53.3,33.3,56,30,56z"/>
<path class="st0" d="M56,30L56,30c0,3.3-2.7,6-6,6H10c-3.3,0-6-2.7-6-6l0,0c0-3.3,2.7-6,6-6h40C53.3,24,56,26.7,56,30z"/>
</svg>
