<?xml version="1.0" encoding="utf-8"?>
<!-- Generator: Adobe Illustrator 23.0.3, SVG Export Plug-In . SVG Version: 6.00 Build 0)  -->
<svg version="1.1" id="Calque_1" xmlns="http://www.w3.org/2000/svg" xmlns:xlink="http://www.w3.org/1999/xlink" x="0px" y="0px"
	 viewBox="0 0 60 60" style="enable-background:new 0 0 60 60;" xml:space="preserve">
<g>
	<path d="M38.01,48.27c-1.12,4.19-3.61,6.82-8.05,6.79c-4.39-0.03-6.85-2.64-7.95-6.79c-3.53,0-7.05,0.02-10.58-0.01
		c-2.24-0.02-3.88-1.46-4.17-3.65c-0.2-1.53,0.26-2.97,1.56-3.74c2.54-1.49,3.43-3.69,3.76-6.49c0.49-4.09,1.2-8.17,2.02-12.21
		c1.14-5.62,4.52-9.47,9.83-11.6c0.72-0.29,1.03-0.6,1.07-1.41c0.11-2.4,2.12-4.19,4.55-4.16c2.37,0.02,4.34,1.8,4.44,4.16
		c0.04,0.82,0.35,1.13,1.07,1.41c5.65,2.27,8.98,6.45,10.02,12.43c0.8,4.63,1.55,9.26,2.3,13.9c0.18,1.13,0.71,1.99,1.62,2.64
		c0.63,0.46,1.27,0.92,1.86,1.43c1.33,1.16,1.79,2.94,1.16,4.56c-0.66,1.69-1.91,2.67-3.73,2.7c-3.17,0.06-6.34,0.02-9.51,0.02
		C38.87,48.27,38.45,48.27,38.01,48.27z M29.9,46.01c5.94,0,11.88,0,17.83,0c0.36,0,0.71,0.01,1.07-0.03
		c0.81-0.11,1.39-0.54,1.63-1.34c0.25-0.8,0-1.48-0.63-2.01c-0.57-0.48-1.18-0.91-1.78-1.36c-1.36-1.01-2.12-2.35-2.39-4.01
		c-0.78-4.77-1.57-9.54-2.35-14.31c-1.06-6.45-6.67-11.13-13.3-11.12c-6.58,0.02-12.15,4.71-13.21,11.11
		c-0.78,4.77-1.58,9.54-2.35,14.31c-0.27,1.66-1.03,3.01-2.39,4.02c-0.6,0.45-1.21,0.88-1.78,1.36c-0.63,0.52-0.89,1.2-0.64,2
		c0.24,0.79,0.82,1.23,1.63,1.34c0.35,0.05,0.71,0.04,1.07,0.04C18.16,46.02,24.03,46.01,29.9,46.01z M35.51,48.35
		c-3.7,0-7.33,0-10.98,0c0.55,2.63,2.79,4.45,5.43,4.49C32.61,52.88,34.92,51.04,35.51,48.35z M32.23,9.59
		c-0.15-1.5-1.06-2.39-2.31-2.33c-1.24,0.06-2.08,0.97-2.09,2.33C29.28,9.59,30.71,9.59,32.23,9.59z"/>
</g>
</svg>
