<?xml version="1.0" encoding="utf-8"?>
<!-- Generator: Adobe Illustrator 23.0.3, SVG Export Plug-In . SVG Version: 6.00 Build 0)  -->
<svg version="1.1" id="Calque_1" xmlns="http://www.w3.org/2000/svg" xmlns:xlink="http://www.w3.org/1999/xlink" x="0px" y="0px"
	 viewBox="0 0 60 60" style="enable-background:new 0 0 60 60;" xml:space="preserve">
<style type="text/css">
	.st0{fill:#141414;}
	.st1{fill:#1B1B1B;}
</style>
<g>
	<path class="st0" d="M29.7,47.5c-5.5,0-10.9,0-16.4,0c-1.4,0-2.6-0.3-3.2-1.7c-0.5-1.3-0.3-2.5,1.2-3.5c1.8-1.3,2.2-2.8,2.2-4.9
		c-0.2-4.5,0-8.9,0-13.4c0-7.9,5-14.2,12.7-16c0.7-0.2,1-0.5,0.9-1.2c0-0.6,0-1.2,0.1-1.7c0.3-1.3,1.4-2,2.6-1.9
		c1.2,0.1,2.4,1,2.3,2.2c-0.2,2.1,0.8,2.5,2.5,3c6.8,2.1,11.2,8.3,11.2,15.4c0,5.1,0,10.2,0,15.3c0,0.9,0.2,1.6,1,2.2
		c0.5,0.4,1,0.9,1.5,1.3c1.1,0.9,1.3,2.1,0.8,3.3c-0.5,1.2-1.4,1.7-2.7,1.7C40.8,47.5,35.3,47.5,29.7,47.5z"/>
	<path class="st1" d="M29.6,49.4c1.5,0,3.1,0.1,4.6,0c0.9,0,1,0.4,0.9,1.1c-0.4,2.6-2.9,4.6-5.6,4.5c-2.7-0.1-5.1-2.2-5.4-4.8
		c-0.1-0.7,0.1-0.9,0.8-0.9C26.4,49.4,28,49.4,29.6,49.4z"/>
</g>
<path class="st1" d="M34.3,49.4h-0.1H23.9c0.1,1.3,0.6,2.6,1.4,3.5c0.3,0.4,0.6,0.7,1,1c0.3,0.2,0.5,0.4,0.8,0.5
	c0.1,0.1,0.3,0.1,0.4,0.2c0.2,0.1,0.3,0.1,0.5,0.2c0.3,0.1,0.6,0.2,1,0.2c0.2,0,0.3,0,0.5,0c0,0,0.1,0,0.1,0c0.2,0,0.3,0,0.5,0
	c0.2,0,0.3,0,0.5-0.1c0.2,0,0.3-0.1,0.4-0.1c0.2,0,0.3-0.1,0.5-0.2c0.1-0.1,0.3-0.1,0.4-0.2c0.2-0.1,0.3-0.1,0.4-0.2
	c0.2-0.1,0.4-0.2,0.5-0.4c0.1-0.1,0.2-0.2,0.3-0.3c0.1-0.1,0.3-0.2,0.4-0.3v0c0.1-0.1,0.3-0.3,0.4-0.4c0.1-0.1,0.2-0.3,0.3-0.4
	c0.1-0.2,0.2-0.4,0.3-0.6c0.1-0.1,0.1-0.3,0.2-0.4c0.3-0.6,0.4-1.3,0.5-2H34.3z"/>
<path class="st1" d="M21.7,49.2"/>
</svg>
