<?xml version="1.0" encoding="utf-8"?>
<!-- Generator: Adobe Illustrator 23.0.3, SVG Export Plug-In . SVG Version: 6.00 Build 0)  -->
<svg version="1.1" id="Calque_1" xmlns="http://www.w3.org/2000/svg" xmlns:xlink="http://www.w3.org/1999/xlink" x="0px" y="0px"
	 viewBox="0 0 60 60" style="enable-background:new 0 0 60 60;" xml:space="preserve">
<g>
	<path d="M51.4,41c-0.6-0.5-1.2-1-1.9-1.4c-0.9-0.6-1.4-1.5-1.6-2.6c-0.8-4.6-1.5-9.3-2.3-13.9c-1-6-4.4-10.2-10-12.4
		c-0.7-0.3-1-0.6-1.1-1.4C34.4,6.8,32.4,5,30,5c-2.4,0-4.4,1.8-4.5,4.2c0,0.8-0.3,1.1-1.1,1.4c-5.3,2.1-8.7,6-9.8,11.6
		c-0.8,4-1.5,8.1-2,12.2c-0.3,2.8-1.2,5-3.8,6.5c-1.3,0.8-1.8,2.2-1.6,3.7c0.3,2.2,1.9,3.6,4.2,3.7c3.5,0,7,0,10.6,0
		c1.1,4.1,3.6,6.8,8,6.8c4.4,0,6.9-2.6,8-6.8c0.4,0,0.9,0,1.3,0c3.2,0,6.3,0,9.5,0c1.8,0,3.1-1,3.7-2.7C53.2,43.9,52.7,42.1,51.4,41
		z M29.9,7.3c1.3-0.1,2.2,0.8,2.3,2.3h-4.4C27.8,8.2,28.7,7.3,29.9,7.3z M30,52.8c-2.6,0-4.9-1.9-5.4-4.5h11
		C34.9,51,32.6,52.9,30,52.8z M50.4,44.6c-0.2,0.8-0.8,1.2-1.6,1.3c-0.4,0-0.7,0-1.1,0H29.9c-5.9,0-11.7,0-17.6,0
		c-0.4,0-0.7,0-1.1,0c-0.8-0.1-1.4-0.5-1.6-1.3c-0.3-0.8,0-1.5,0.6-2c0.6-0.5,1.2-0.9,1.8-1.4c1.4-1,2.1-2.4,2.4-4
		c0.8-4.8,1.6-9.5,2.4-14.3c1.1-6.4,6.6-11.1,13.2-11.1c6.6,0,12.2,4.7,13.3,11.1c0.8,4.8,1.6,9.5,2.3,14.3c0.3,1.7,1,3,2.4,4
		c0.6,0.4,1.2,0.9,1.8,1.4C50.4,43.2,50.7,43.8,50.4,44.6z"/>
	<path d="M35.5,48.3c-0.6,2.7-2.9,4.5-5.5,4.5c-2.6,0-4.9-1.9-5.4-4.5H35.5z"/>
	<path d="M32.2,9.6h-4.4c0-1.4,0.8-2.3,2.1-2.3C31.2,7.2,32.1,8.1,32.2,9.6z"/>
	<path d="M50.4,44.6c-0.2,0.8-0.8,1.2-1.6,1.3c-0.4,0-0.7,0-1.1,0H29.9c-5.9,0-11.7,0-17.6,0c-0.4,0-0.7,0-1.1,0
		c-0.8-0.1-1.4-0.5-1.6-1.3c-0.3-0.8,0-1.5,0.6-2c0.6-0.5,1.2-0.9,1.8-1.4c1.4-1,2.1-2.4,2.4-4c0.8-4.8,1.6-9.5,2.4-14.3
		c1.1-6.4,6.6-11.1,13.2-11.1c6.6,0,12.2,4.7,13.3,11.1c0.8,4.8,1.6,9.5,2.3,14.3c0.3,1.7,1,3,2.4,4c0.6,0.4,1.2,0.9,1.8,1.4
		C50.4,43.2,50.7,43.8,50.4,44.6z"/>
</g>
</svg>
