<?xml version="1.0" encoding="utf-8"?>
<!-- Generator: Adobe Illustrator 23.0.3, SVG Export Plug-In . SVG Version: 6.00 Build 0)  -->
<svg version="1.1" id="Calque_1" xmlns="http://www.w3.org/2000/svg" xmlns:xlink="http://www.w3.org/1999/xlink" x="0px" y="0px"
	 viewBox="0 0 60 60" style="enable-background:new 0 0 60 60;" xml:space="preserve">
<style type="text/css">
	.st0{fill:#F5564E;}
</style>
<g>
	<path class="st0" d="M29.1,29.2c-6.3-0.6-10.8-6.1-10.3-12.3C19.2,11.2,24.1,6.6,30,6.6c5.8,0,10.8,4.6,11.3,10.3
		c0.5,6.3-4.1,11.7-10.4,12.2c0.8,0.1,1.7,0.2,2.5,0.3c6.8,1.4,12.3,6.9,13.4,13.8c0.2,0.9,0.2,1.8,0.3,2.6c0,1.3-0.5,2.4-1.5,3.3
		c-1.1,1.1-2.5,1.7-3.9,2.3c-2.3,0.8-4.8,1.3-7.2,1.5c-3.2,0.3-6.4,0.3-9.6-0.1c-2.7-0.3-5.3-0.8-7.8-2c-0.7-0.3-1.3-0.7-1.9-1.1
		c-1.6-1.2-2.4-2.7-2.3-4.7c0.4-4.8,2.3-8.7,5.8-11.9c2.8-2.4,6-3.8,9.7-4.1C28.6,29.3,28.9,29.2,29.1,29.2z"/>
</g>
</svg>
