<?xml version="1.0" encoding="utf-8"?>
<!-- Generator: Adobe Illustrator 23.0.3, SVG Export Plug-In . SVG Version: 6.00 Build 0)  -->
<svg version="1.1" id="Calque_1" xmlns="http://www.w3.org/2000/svg" xmlns:xlink="http://www.w3.org/1999/xlink" x="0px" y="0px"
	 viewBox="0 0 60 60" style="enable-background:new 0 0 60 60;" xml:space="preserve">
<style type="text/css">
	.st0{fill:#020202;}
</style>
<g>
	<path class="st0" d="M37.18,33.85c-1.49-0.62-3.02-1.16-4.53-1.74c-0.07,0.03-0.14,0.06-0.21,0.08c0.07-0.03,0.14-0.05,0.21-0.08
		c-0.36-0.2-0.73-0.35-1.14-0.44c-0.37-0.15-0.73-0.33-1.1-0.45c-0.41-0.13-0.48-0.27-0.24-0.67c2.05-3.39,4.08-6.79,6.1-10.19
		c0.68-1.14,0.88-2.34,0.39-3.61c-0.03-0.3-0.16-0.56-0.35-0.8c-0.78-1.38-2.07-1.99-3.54-2.16c-3.39-0.39-6.79-0.68-10.17-1.07
		c-1.61-0.18-3.19-0.37-4.6,0.71c-0.35,0.11-0.68,0.25-0.98,0.46c-2.1,0.97-4.2,1.94-6.3,2.91c-1.32,0.61-1.82,1.86-1.27,3.06
		c0.55,1.19,1.86,1.6,3.16,0.99c2.55-1.19,5.09-2.37,7.63-3.57c0.33-0.16,0.64-0.22,1-0.18c2.11,0.22,4.22,0.44,6.33,0.64
		c0.38,0.04,0.39,0.16,0.2,0.43c-0.1,0.15-0.19,0.31-0.28,0.47c-1.78,2.98-3.57,5.95-5.33,8.93c-1.36,2.31-0.35,5.21,2.13,6.11
		c2.68,0.96,5.31,2.04,7.98,3.02c0.44,0.16,0.45,0.29,0.2,0.65c-2.14,3.12-4.26,6.25-6.39,9.37c-0.25,0.36-0.5,0.72-0.49,1.19
		c-0.11,0.53,0,1.01,0.32,1.45c0.84,1.41,2.76,1.46,3.73,0.06c1.41-2.03,2.8-4.09,4.19-6.14c1.1-1.63,2.2-3.26,3.29-4.89
		c0.35-0.41,0.64-0.85,0.9-1.32c0,0,0,0,0,0c0.26-0.29,0.38-0.63,0.38-1.02C38.47,35.06,38.07,34.22,37.18,33.85z M28.62,25.11
		c-0.05,0-0.1,0.02-0.14,0.05C28.52,25.13,28.57,25.1,28.62,25.11z M26.45,26.57c-0.02,0.01-0.04,0.01-0.06,0.02
		C26.41,26.58,26.43,26.58,26.45,26.57z M26.58,26.53c-0.02,0.01-0.04,0.01-0.06,0.02C26.54,26.54,26.56,26.53,26.58,26.53
		c0.02-0.01,0.04-0.01,0.06-0.01C26.63,26.52,26.6,26.52,26.58,26.53z M26.79,26.54c-0.01-0.04-0.04-0.07-0.06-0.09
		C26.76,26.47,26.78,26.5,26.79,26.54L26.79,26.54z M28.66,25.11L28.66,25.11c-0.01,0.03-0.01,0.08-0.02,0.12
		C28.64,25.19,28.65,25.15,28.66,25.11z M28.77,24.99c-0.03,0.05-0.07,0.09-0.11,0.12v0C28.7,25.08,28.74,25.03,28.77,24.99
		c0.02-0.03,0.05-0.06,0.07-0.09C28.82,24.93,28.79,24.96,28.77,24.99z M28.87,24.85c0.02-0.03,0.04-0.06,0.07-0.09
		C28.92,24.78,28.89,24.82,28.87,24.85z M31.88,32.52c0.03-0.04,0.07-0.07,0.11-0.1C31.95,32.45,31.92,32.48,31.88,32.52z
		 M28.77,45.52c0,0.01,0,0.03-0.01,0.04c-0.01,0.06-0.03,0.13-0.05,0.19c0.02-0.06,0.04-0.13,0.05-0.19
		C28.76,45.55,28.76,45.54,28.77,45.52C28.77,45.52,28.77,45.52,28.77,45.52z"/>
	<path class="st0" d="M24.07,35.31c-1.46-0.42-2.6-1.29-3.42-2.57c-0.06-0.09-0.08-0.24-0.26-0.25c-0.05,0.14-0.11,0.28-0.15,0.41
		c-0.79,2.5-1.58,5-2.37,7.51c-0.11,0.36-0.3,0.64-0.57,0.91c-3.32,3.14-6.62,6.29-9.93,9.44c-1.11,1.06-1.22,2.54-0.27,3.55
		c0.98,1.05,2.47,1.04,3.6-0.04c3.29-3.12,6.57-6.25,9.85-9.37c0.74-0.7,1.57-1.34,1.72-2.45c0.18-0.55,0.36-1.1,0.54-1.65
		c0.52-1.63,1.03-3.27,1.58-4.89C24.5,35.55,24.46,35.42,24.07,35.31z M15.82,47.5C15.82,47.5,15.82,47.5,15.82,47.5
		c0.02,0,0.04,0,0.07,0.01C15.86,47.5,15.84,47.5,15.82,47.5z M15.94,47.52c0.04,0.01,0.07,0.03,0.1,0.06
		c0.03,0.02,0.06,0.05,0.09,0.08c-0.03-0.03-0.06-0.06-0.09-0.08C16.02,47.55,15.98,47.53,15.94,47.52z M15.82,47.5
		c-0.01,0.04-0.02,0.08-0.03,0.11c-0.03,0.14-0.05,0.24-0.05,0.32c0-0.08,0.02-0.18,0.05-0.32C15.8,47.57,15.81,47.54,15.82,47.5
		L15.82,47.5z"/>
	<path class="st0" d="M53.5,18.96c-0.27-1.48-1.88-2.13-3.19-1.29c-2.49,1.6-4.97,3.21-7.43,4.84c-0.37,0.24-0.62,0.28-0.92-0.04
		c-0.29-0.35-0.64-0.64-1-0.91c-0.88-0.81-1.75-1.62-2.69-2.49c-0.25,1.39-1.02,2.38-1.64,3.45c-0.12,0.21-0.25,0.36,0.02,0.59
		c1.41,1.25,2.79,2.53,4.2,3.77c0.72,0.64,1.63,0.71,2.43,0.19c3.13-2.02,6.25-4.05,9.36-6.09C53.35,20.53,53.66,19.81,53.5,18.96z"
		/>
	<path class="st0" d="M34.15,9.97c-0.08,2.18,1.65,4.37,3.73,4.71c0.39,0.18,0.8,0.18,1.21,0.16c2.6,0.1,4.97-2.2,4.92-4.76
		c0.04-0.41,0.06-0.81-0.1-1.2c-0.34-1.76-1.4-2.96-3.03-3.59c-1.67-0.65-3.29-0.45-4.75,0.66c-0.75,0.51-1.27,1.19-1.61,2.03
		c-0.02,0.08-0.05,0.16-0.07,0.23c-0.1,0.09-0.11,0.2-0.11,0.33c-0.18,0.39-0.22,0.8-0.18,1.22C34.1,9.82,34.1,9.9,34.15,9.97z"/>
</g>
</svg>
