<?xml version="1.0" encoding="utf-8"?>
<!-- Generator: Adobe Illustrator 23.0.3, SVG Export Plug-In . SVG Version: 6.00 Build 0)  -->
<svg version="1.1" id="Calque_1" xmlns="http://www.w3.org/2000/svg" xmlns:xlink="http://www.w3.org/1999/xlink" x="0px" y="0px"
	 viewBox="0 0 60 60" style="enable-background:new 0 0 60 60;" xml:space="preserve">
<style type="text/css">
	.st0{fill:#F5564E;}
</style>
<g>
	<path class="st0" d="M37.2,33.8c-1.5-0.6-3-1.2-4.5-1.7c-0.1,0-0.1,0.1-0.2,0.1c0.1,0,0.1,0,0.2-0.1c-0.4-0.2-0.7-0.4-1.1-0.4
		c-0.4-0.1-0.7-0.3-1.1-0.5c-0.4-0.1-0.5-0.3-0.2-0.7c2-3.4,4.1-6.8,6.1-10.2c0.7-1.1,0.9-2.3,0.4-3.6c0-0.3-0.2-0.6-0.3-0.8
		c-0.8-1.4-2.1-2-3.5-2.2c-3.4-0.4-6.8-0.7-10.2-1.1c-1.6-0.2-3.2-0.4-4.6,0.7c-0.4,0.1-0.7,0.3-1,0.5c-2.1,1-4.2,1.9-6.3,2.9
		c-1.3,0.6-1.8,1.9-1.3,3.1c0.6,1.2,1.9,1.6,3.2,1c2.6-1.2,5.1-2.4,7.6-3.6c0.3-0.2,0.6-0.2,1-0.2c2.1,0.2,4.2,0.4,6.3,0.6
		c0.4,0,0.4,0.2,0.2,0.4c-0.1,0.1-0.2,0.3-0.3,0.5c-1.8,3-3.6,6-5.3,8.9c-1.4,2.3-0.4,5.2,2.1,6.1c2.7,1,5.3,2,8,3
		c0.4,0.2,0.5,0.3,0.2,0.7c-2.1,3.1-4.3,6.3-6.4,9.4c-0.3,0.4-0.5,0.7-0.5,1.2c-0.1,0.5,0,1,0.3,1.5c0.8,1.4,2.8,1.5,3.7,0.1
		c1.4-2,2.8-4.1,4.2-6.1c1.1-1.6,2.2-3.3,3.3-4.9c0.3-0.4,0.6-0.8,0.9-1.3l0,0c0.3-0.3,0.4-0.6,0.4-1C38.5,35.1,38.1,34.2,37.2,33.8
		z M28.6,25.1c0,0-0.1,0-0.1,0C28.5,25.1,28.6,25.1,28.6,25.1z M26.5,26.6C26.4,26.6,26.4,26.6,26.5,26.6
		C26.4,26.6,26.4,26.6,26.5,26.6z M26.6,26.5C26.6,26.5,26.5,26.5,26.6,26.5C26.5,26.5,26.6,26.5,26.6,26.5
		C26.6,26.5,26.6,26.5,26.6,26.5C26.6,26.5,26.6,26.5,26.6,26.5z M26.8,26.5C26.8,26.5,26.8,26.5,26.8,26.5
		C26.8,26.5,26.8,26.5,26.8,26.5L26.8,26.5z M28.7,25.1L28.7,25.1c0,0,0,0.1,0,0.1C28.6,25.2,28.6,25.1,28.7,25.1z M28.8,25
		c0,0-0.1,0.1-0.1,0.1l0,0C28.7,25.1,28.7,25,28.8,25C28.8,25,28.8,24.9,28.8,25C28.8,24.9,28.8,25,28.8,25z M28.9,24.9
		C28.9,24.8,28.9,24.8,28.9,24.9C28.9,24.8,28.9,24.8,28.9,24.9z M31.9,32.5c0,0,0.1-0.1,0.1-0.1C32,32.5,31.9,32.5,31.9,32.5z
		 M28.8,45.5C28.8,45.5,28.8,45.5,28.8,45.5c0,0.1,0,0.2-0.1,0.2C28.7,45.7,28.8,45.6,28.8,45.5C28.8,45.5,28.8,45.5,28.8,45.5
		L28.8,45.5z"/>
	<path class="st0" d="M24.1,35.3c-1.5-0.4-2.6-1.3-3.4-2.6c-0.1-0.1-0.1-0.2-0.3-0.3c0,0.1-0.1,0.3-0.1,0.4c-0.8,2.5-1.6,5-2.4,7.5
		c-0.1,0.4-0.3,0.6-0.6,0.9c-3.3,3.1-6.6,6.3-9.9,9.4c-1.1,1.1-1.2,2.5-0.3,3.5c1,1,2.5,1,3.6,0c3.3-3.1,6.6-6.3,9.9-9.4
		c0.7-0.7,1.6-1.3,1.7-2.5c0.2-0.5,0.4-1.1,0.5-1.7c0.5-1.6,1-3.3,1.6-4.9C24.5,35.5,24.5,35.4,24.1,35.3z M15.8,47.5L15.8,47.5
		C15.8,47.5,15.9,47.5,15.8,47.5C15.9,47.5,15.8,47.5,15.8,47.5z M15.9,47.5C16,47.5,16,47.5,15.9,47.5c0.1,0.1,0.2,0.1,0.2,0.1
		C16.1,47.6,16.1,47.6,15.9,47.5C16,47.5,16,47.5,15.9,47.5z M15.8,47.5c0,0,0,0.1,0,0.1c0,0.1-0.1,0.2-0.1,0.3c0-0.1,0-0.2,0.1-0.3
		C15.8,47.6,15.8,47.5,15.8,47.5L15.8,47.5z"/>
	<path class="st0" d="M53.5,19c-0.3-1.5-1.9-2.1-3.2-1.3c-2.5,1.6-5,3.2-7.4,4.8c-0.4,0.2-0.6,0.3-0.9,0c-0.3-0.4-0.6-0.6-1-0.9
		c-0.9-0.8-1.8-1.6-2.7-2.5c-0.3,1.4-1,2.4-1.6,3.5c-0.1,0.2-0.3,0.4,0,0.6c1.4,1.3,2.8,2.5,4.2,3.8c0.7,0.6,1.6,0.7,2.4,0.2
		c3.1-2,6.3-4,9.4-6.1C53.3,20.5,53.7,19.8,53.5,19z"/>
	<path class="st0" d="M34.2,10c-0.1,2.2,1.7,4.4,3.7,4.7c0.4,0.2,0.8,0.2,1.2,0.2c2.6,0.1,5-2.2,4.9-4.8c0-0.4,0.1-0.8-0.1-1.2
		c-0.3-1.8-1.4-3-3-3.6c-1.7-0.7-3.3-0.4-4.8,0.7c-0.8,0.5-1.3,1.2-1.6,2c0,0.1,0,0.2-0.1,0.2c-0.1,0.1-0.1,0.2-0.1,0.3
		c-0.2,0.4-0.2,0.8-0.2,1.2C34.1,9.8,34.1,9.9,34.2,10z"/>
</g>
</svg>
